PathFileType	4	(X/Y/Z)	 s07c0202.trc
DataRate	CameraRate	NumFrames	NumMarkers	Units	OrigDataRate	OrigDataStartFrame	OrigNumFrames
200	200	4	48	mm	200	1	2000
Frame#	Time	racr			lacr			c7			jug			rlel			rdr			llel			ldr			s2			lic			ric			lasi			rasi			rpsi			lpsi			rgt			lgt			rth1			rth2			rth3			rth4			rlfc			rmfc			rsh1			rsh2			rsh3			rsh4			rlmal			rcal			rtoe			rmt5			lth1			lth2			lth4			lth3			llfc			lmfc			lsh1			lsh2			lsh3			lsh4			llmal			lcal			ltoe			lmt5			SBIKE			LBIKE			RBIKE			
		X1	Y1	Z1	X2	Y2	Z2	X3	Y3	Z3	X4	Y4	Z4	X5	Y5	Z5	X6	Y6	Z6	X7	Y7	Z7	X8	Y8	Z8	X9	Y9	Z9	X10	Y10	Z10	X11	Y11	Z11	X12	Y12	Z12	X13	Y13	Z13	X14	Y14	Z14	X15	Y15	Z15	X16	Y16	Z16	X17	Y17	Z17	X18	Y18	Z18	X19	Y19	Z19	X20	Y20	Z20	X21	Y21	Z21	X22	Y22	Z22	X23	Y23	Z23	X24	Y24	Z24	X25	Y25	Z25	X26	Y26	Z26	X27	Y27	Z27	X28	Y28	Z28	X29	Y29	Z29	X30	Y30	Z30	X31	Y31	Z31	X32	Y32	Z32	X33	Y33	Z33	X34	Y34	Z34	X35	Y35	Z35	X36	Y36	Z36	X37	Y37	Z37	X38	Y38	Z38	X39	Y39	Z39	X40	Y40	Z40	X41	Y41	Z41	X42	Y42	Z42	X43	Y43	Z43	X44	Y44	Z44	X45	Y45	Z45	X46	Y46	Z46	X47	Y47	Z47	X48	Y48	Z48	
1	0.0050	418.718177	1469.557803	-68.412528	411.347646	1457.889982	-342.330985	398.081549	1496.134562	-214.908197	365.029366	1357.786712	-212.359569	494.146671	1151.101825	50.811946	693.482044	939.373401	-31.717736	506.976292	1156.926081	-467.408020	696.473249	931.177674	-429.045467	-138.995810	1198.271531	-241.538812	27.255812	1257.268190	-377.668401	23.778538	1244.674801	-82.645555	62.140045	1177.754949	-350.794481	40.193594	1189.580852	-102.275600	-116.747430	1237.705702	-187.801337	-98.654512	1248.112862	-295.301201	-28.938361	1122.637926	-42.670871	-24.398910	1096.342018	-408.868309	114.286293	1068.746059	-40.458925	200.722799	1057.762460	-52.264238	271.859031	1010.464703	-49.021203	210.943034	1087.939846	-71.408654	392.428282	933.733046	-85.059976	388.587084	918.992434	-191.136359	343.736600	798.396849	-61.506326	333.326240	710.896547	-80.604015	284.629100	639.636211	-76.533890	350.404888	709.099826	-116.348074	229.312798	516.046408	-78.874483	158.555681	486.092011	-108.153989	441.130926	419.418933	-119.296309	358.967771	398.715996	-49.469950	41.538642	992.202563	-415.130078	113.185054	942.191550	-418.175517	141.330696	963.449169	-408.747036	150.833200	859.848457	-412.720685	246.341800	707.576976	-379.062664	230.889284	690.761627	-282.548324	152.997044	589.703022	-404.175759	115.133092	514.578571	-385.217649	43.645146	460.780533	-396.863950	116.789819	515.725945	-343.769364	-48.034547	363.051179	-397.905570	-128.611610	345.536893	-365.414541	139.585945	238.592795	-353.238728	57.585917	239.784557	-419.606574	-259.387414	970.388744	-232.691924	-75.694674	83.589343	-437.946945	-82.227480	79.110775	-40.346950	
2	0.0100	418.729706	1469.568727	-68.353044	411.361535	1457.868163	-342.280442	398.118427	1496.090249	-214.838839	365.041849	1357.773588	-212.281936	494.120871	1151.067758	50.877952	693.462425	939.395990	-31.721676	506.959389	1156.929005	-467.403084	696.482305	931.180169	-429.075942	-138.935874	1198.269830	-241.566865	27.331164	1257.251293	-377.658954	23.759954	1244.682362	-82.627610	62.190433	1177.727427	-350.773965	40.200448	1189.592472	-102.265280	-116.713464	1237.693489	-187.818486	-98.585577	1248.103585	-295.333459	-28.956839	1122.597787	-42.679753	-24.329505	1096.360509	-408.894663	114.274023	1068.675164	-40.421699	200.714532	1057.711188	-52.232810	271.807120	1010.397404	-48.986451	210.940947	1087.854420	-71.382097	392.363059	933.556319	-85.021834	388.545007	918.913329	-191.161409	343.673098	798.292160	-61.491620	333.295283	710.779061	-80.592092	284.616290	639.520088	-76.541783	350.377460	708.994832	-116.357347	229.311636	515.887663	-78.892914	158.591256	485.950275	-108.172428	441.156166	419.341600	-119.278559	359.005112	398.647247	-49.470615	41.614816	992.222120	-415.135847	113.253837	942.187689	-418.178397	141.403283	963.441560	-408.767764	150.895039	859.831409	-412.740626	246.376080	707.566673	-379.089396	230.939377	690.751745	-282.548236	152.987224	589.734185	-404.200382	115.103661	514.613603	-385.224964	43.617913	460.814339	-396.930867	116.778505	515.726567	-343.786222	-48.122504	363.135929	-397.896814	-128.685053	345.594453	-365.432061	139.527317	238.716516	-353.251495	57.537912	239.880733	-419.597178	-259.383873	970.385881	-232.686483	-75.684814	83.605572	-437.931715	-82.233355	79.195932	-40.339061	
3	0.0150	418.728016	1469.548010	-68.274994	411.414394	1457.873134	-342.207943	398.072272	1496.167469	-214.656303	365.059561	1357.745783	-212.257198	494.116900	1151.057884	50.904650	693.452217	939.417004	-31.724149	506.960311	1156.922102	-467.399808	696.484533	931.192542	-429.066290	-138.911209	1198.263556	-241.575816	27.418902	1257.224890	-377.647213	23.754929	1244.692505	-82.627698	62.240203	1177.695126	-350.744563	40.204105	1189.580526	-102.251452	-116.674167	1237.680811	-187.843621	-98.531974	1248.087372	-295.330868	-28.966721	1122.556948	-42.691287	-24.259024	1096.348347	-408.882095	114.271283	1068.609542	-40.414872	200.687070	1057.633495	-52.208993	271.776584	1010.335778	-48.951163	210.916663	1087.784546	-71.362776	392.321377	933.435857	-84.988126	388.540010	918.781746	-191.145117	343.647672	798.170995	-61.473328	333.282629	710.681769	-80.563002	284.629141	639.361613	-76.529494	350.384713	708.888568	-116.344950	229.317901	515.761899	-78.913233	158.641096	485.820550	-108.200140	441.217840	419.256376	-119.266550	359.054716	398.542342	-49.456475	41.672243	992.211689	-415.156077	113.303366	942.161163	-418.191768	141.450739	963.422885	-408.784536	150.951550	859.805132	-412.746655	246.416838	707.543255	-379.075336	230.982069	690.731079	-282.564600	153.002085	589.736851	-404.188927	115.076858	514.630817	-385.228202	43.555186	460.869255	-396.916975	116.724316	515.718027	-343.788434	-48.207237	363.210333	-397.893745	-128.769074	345.668796	-365.446146	139.466918	238.844242	-353.258745	57.479178	239.990248	-419.597667	-259.370262	970.401766	-232.693284	-75.679362	83.608539	-437.922204	-82.231253	79.172565	-40.340434	
4	0.0200	418.729715	1469.542336	-68.205925	410.110354	1458.393784	-343.635920	398.149112	1494.944654	-209.015710	365.074430	1357.763641	-212.227220	493.792530	1151.729406	51.489680	693.453644	939.406678	-31.723034	506.951926	1156.932096	-467.396841	695.151382	928.738503	-422.663965	-138.867706	1198.253900	-241.589553	26.166979	1256.267689	-375.574556	23.512844	1245.253490	-82.824221	62.289700	1177.697213	-350.722347	40.214037	1189.596472	-102.233278	-116.657190	1237.665252	-187.868045	-98.301002	1248.321785	-295.925678	-28.991649	1122.527335	-42.692488	-24.195222	1096.332043	-408.853143	114.203996	1068.511615	-40.398289	200.675580	1057.574475	-52.187080	271.744737	1010.267788	-48.921047	210.915820	1087.690302	-71.363656	392.379692	933.238784	-84.938034	388.510560	918.704123	-191.146105	343.652976	798.053303	-61.462460	332.944634	710.370899	-80.852965	284.715695	639.111781	-76.485875	350.526654	708.575298	-116.372177	228.845699	516.561518	-77.462081	158.703745	485.704344	-108.195432	441.280505	419.080977	-119.191787	359.224904	398.339247	-49.469729	41.726087	992.200089	-415.151875	113.690987	941.015645	-417.283031	141.504336	963.468267	-408.878571	150.778617	860.096851	-412.454708	246.455130	707.518732	-379.083489	231.080466	690.724993	-282.525200	152.995672	589.732292	-404.191393	115.190631	514.332988	-385.357906	43.312347	461.177363	-396.907047	117.118741	515.531998	-343.537692	-48.311427	363.302380	-397.884845	-128.864813	345.719636	-365.442648	139.417245	238.953861	-353.255978	57.429320	240.099359	-419.586450	-259.475892	970.425470	-233.077174	-75.679394	83.595712	-437.931053	-82.232998	79.167561	-40.343024	
